<svg width="12" height="12" viewBox="0 0 12 12" fill="none" xmlns="http://www.w3.org/2000/svg">
<g id="mingcute:search-line" clip-path="url(#clip0_168_2259)">
<g id="Group">
<path id="Vector" fill-rule="evenodd" clip-rule="evenodd" d="M5.24964 1C4.57193 1.00006 3.90407 1.16218 3.30177 1.47285C2.69946 1.78351 2.18018 2.23371 1.78726 2.78588C1.39433 3.33805 1.13914 3.97617 1.04299 4.64702C0.946842 5.31787 1.01251 6.00199 1.23453 6.64229C1.45654 7.2826 1.82846 7.86053 2.31926 8.32786C2.81005 8.7952 3.40549 9.13839 4.0559 9.3288C4.7063 9.51921 5.39281 9.55132 6.05815 9.42246C6.72349 9.29359 7.34836 9.00748 7.88064 8.588L9.70664 10.414C9.80094 10.5051 9.92724 10.5555 10.0583 10.5543C10.1894 10.5532 10.3148 10.5006 10.4075 10.4079C10.5003 10.3152 10.5528 10.1898 10.554 10.0587C10.5551 9.9276 10.5047 9.8013 10.4136 9.707L8.58764 7.881C9.08164 7.25431 9.38922 6.5012 9.47519 5.70786C9.56116 4.91453 9.42204 4.11301 9.07375 3.39505C8.72546 2.67708 8.18208 2.07168 7.50579 1.64812C6.8295 1.22455 6.04762 0.999946 5.24964 1ZM1.99964 5.25C1.99964 4.38805 2.34205 3.5614 2.95154 2.9519C3.56103 2.34241 4.38768 2 5.24964 2C6.11159 2 6.93824 2.34241 7.54774 2.9519C8.15723 3.5614 8.49964 4.38805 8.49964 5.25C8.49964 6.11195 8.15723 6.9386 7.54774 7.5481C6.93824 8.15759 6.11159 8.5 5.24964 8.5C4.38768 8.5 3.56103 8.15759 2.95154 7.5481C2.34205 6.9386 1.99964 6.11195 1.99964 5.25Z" fill="black"/>
</g>
</g>
<defs>
<clipPath id="clip0_168_2259">
<rect width="12" height="12" fill="white"/>
</clipPath>
</defs>
</svg>
