<svg xmlns="http://www.w3.org/2000/svg" width="20" height="20" viewBox="0 0 20 20" fill="none">
<path d="M10 3C8.61553 3 7.26216 3.41054 6.11101 4.17971C4.95987 4.94888 4.06266 6.04213 3.53285 7.32122C3.00303 8.6003 2.86441 10.0078 3.13451 11.3656C3.4046 12.7235 4.07129 13.9708 5.05026 14.9497C6.02922 15.9287 7.2765 16.5954 8.63437 16.8655C9.99224 17.1356 11.3997 16.997 12.6788 16.4672C13.9579 15.9373 15.0511 15.0401 15.8203 13.889C16.5895 12.7378 17 11.3845 17 10C16.998 8.14409 16.2599 6.36475 14.9476 5.05242C13.6353 3.74009 11.8559 3.00196 10 3ZM8.2251 12.6923H11.7749C11.4135 13.9267 10.8077 15.0393 10 15.9157C9.19231 15.0393 8.58654 13.9267 8.2251 12.6923ZM7.98077 11.6154C7.80218 10.5459 7.80218 9.45413 7.98077 8.38461H12.0192C12.1978 9.45413 12.1978 10.5459 12.0192 11.6154H7.98077ZM4.07693 10C4.07646 9.45376 4.15189 8.9101 4.30106 8.38461H6.88971C6.72907 9.45555 6.72907 10.5445 6.88971 11.6154H4.30106C4.15189 11.0899 4.07646 10.5462 4.07693 10ZM11.7749 7.30769H8.2251C8.58654 6.07327 9.19231 4.96067 10 4.08433C10.8077 4.96067 11.4135 6.07327 11.7749 7.30769ZM13.1103 8.38461H15.6989C15.9978 9.4408 15.9978 10.5592 15.6989 11.6154H13.1103C13.2709 10.5445 13.2709 9.45555 13.1103 8.38461ZM15.2749 7.30769H12.8902C12.6154 6.2264 12.1539 5.20139 11.5265 4.27885C12.3281 4.49424 13.0757 4.87501 13.7212 5.39664C14.3668 5.91828 14.896 6.56925 15.2749 7.30769ZM8.47346 4.27885C7.84608 5.20139 7.3846 6.2264 7.10981 7.30769H4.7251C5.10399 6.56925 5.63323 5.91828 6.27879 5.39664C6.92435 4.87501 7.67193 4.49424 8.47346 4.27885ZM4.7251 12.6923H7.10981C7.3846 13.7736 7.84608 14.7986 8.47346 15.7212C7.67193 15.5058 6.92435 15.125 6.27879 14.6034C5.63323 14.0817 5.10399 13.4307 4.7251 12.6923ZM11.5265 15.7212C12.1539 14.7986 12.6154 13.7736 12.8902 12.6923H15.2749C14.896 13.4307 14.3668 14.0817 13.7212 14.6034C13.0757 15.125 12.3281 15.5058 11.5265 15.7212Z" fill="black"/>
</svg>